<svg width="128" height="128" viewBox="0 0 128 128" fill="none" xmlns="http://www.w3.org/2000/svg">
<path d="M64 0C28.7104 0 0 28.7104 0 64C0 99.2896 28.7104 128 64 128C99.2896 128 128 99.2896 128 64C128 28.7104 99.29 0 64 0ZM64 121.081C48.3215 121.081 34.0999 114.726 23.7737 104.458C19.65 100.358 16.1494 95.632 13.4237 90.4384C9.27234 82.5295 6.91901 73.5348 6.91901 64C6.91901 32.5254 32.5254 6.91901 64 6.91901C78.9291 6.91901 92.5353 12.6826 102.717 22.0985C107.997 26.9798 112.356 32.842 115.5 39.3943C119.076 46.8491 121.081 55.1947 121.081 64C121.081 95.4746 95.4746 121.081 64 121.081Z" fill="#B48348"/>
<path d="M43.0992 56.6486C46.9205 56.6486 50.0182 53.5508 50.0182 49.7296C50.0182 45.9083 46.9205 42.8105 43.0992 42.8105C39.2779 42.8105 36.1802 45.9083 36.1802 49.7296C36.1802 53.5508 39.2779 56.6486 43.0992 56.6486Z" fill="#B48348"/>
<path d="M85.9107 56.6486C89.732 56.6486 92.8297 53.5508 92.8297 49.7296C92.8297 45.9083 89.732 42.8105 85.9107 42.8105C82.0894 42.8105 78.9917 45.9083 78.9917 49.7296C78.9917 53.5508 82.0894 56.6486 85.9107 56.6486Z" fill="#B48348"/>
<path d="M63.8777 99.4588C77.2633 99.4588 90.0916 92.6133 97.4366 81.2475L91.6251 77.4922C84.8803 87.9291 72.5433 93.7536 60.1898 92.3283C50.5629 91.2182 41.6603 85.6718 36.3746 77.4922L30.5635 81.2475C36.9592 91.1456 47.7382 97.857 59.3967 99.2019C60.8934 99.3744 62.3879 99.4588 63.8777 99.4588Z" fill="#B48348"/>
</svg>
