<svg width="128" height="128" viewBox="0 0 128 128" fill="none" xmlns="http://www.w3.org/2000/svg">
<g clip-path="url(#clip0_320_6433)">
<path d="M64 0C28.7103 0 0 28.7103 0 64C0 99.2897 28.7103 128 64 128C99.2897 128 128 99.2897 128 64C128 28.7103 99.2897 0 64 0ZM64 120.5C32.8457 120.5 7.5 95.1543 7.5 64C7.5 32.8457 32.8457 7.5 64 7.5C95.1543 7.5 120.5 32.8457 120.5 64C120.5 95.1543 95.1543 120.5 64 120.5Z" fill="#B48348"/>
<path d="M64.0002 71.811C53.5152 71.811 43.6542 77.3985 38.2657 86.3928C37.2012 88.1693 37.7787 90.4725 39.5552 91.5368C41.3319 92.6018 43.6347 92.0238 44.6992 90.2473C48.7407 83.5018 56.1364 79.311 64.0002 79.311C71.8862 79.311 79.2927 83.5195 83.3292 90.2943C84.0309 91.4718 85.2762 92.1255 86.5542 92.1255C87.2069 92.1255 87.8684 91.9548 88.4699 91.5965C90.2492 90.5363 90.8319 88.2348 89.7719 86.4555C84.3902 77.4223 74.5149 71.811 64.0002 71.811Z" fill="#B48348"/>
<path d="M55.8179 50.9284C56.4887 48.9691 55.4439 46.8369 53.4847 46.1661C51.5249 45.4954 49.393 46.5401 48.7222 48.4994C47.4939 52.0884 44.1197 54.4999 40.3259 54.4999C36.5297 54.4999 33.1544 52.0861 31.9274 48.4939C31.2579 46.5344 29.1269 45.4879 27.1667 46.1574C25.2067 46.8269 24.1609 48.9584 24.8302 50.9181C27.0942 57.5464 33.3214 61.9999 40.3259 61.9999C47.3254 61.9999 53.5512 57.5506 55.8179 50.9284Z" fill="#B48348"/>
<path d="M100.856 46.1661C98.8978 45.4959 96.765 46.5401 96.0938 48.4994C94.865 52.0884 91.4908 54.4999 87.6973 54.4999C83.9008 54.4999 80.5255 52.0861 79.2985 48.4939C78.629 46.5344 76.4985 45.4879 74.5378 46.1574C72.5778 46.8269 71.532 48.9584 72.2013 50.9181C74.4653 57.5464 80.6928 61.9999 87.6973 61.9999C94.6965 61.9999 100.922 57.5509 103.19 50.9289C103.86 48.9691 102.816 46.8371 100.856 46.1661Z" fill="#B48348"/>
</g>
<defs>
<clipPath id="clip0_320_6433">
<rect width="128" height="128" fill="white"/>
</clipPath>
</defs>
</svg>
