<svg width="128" height="128" viewBox="0 0 128 128" fill="none" xmlns="http://www.w3.org/2000/svg">
<g clip-path="url(#clip0_320_6439)">
<path d="M109.255 18.745C97.1668 6.65732 81.095 0 64 0C46.905 0 30.8332 6.65732 18.745 18.745C6.65732 30.8332 0 46.905 0 64C0 81.095 6.65732 97.1668 18.745 109.255C30.8332 121.343 46.905 128 64 128C81.095 128 97.1668 121.343 109.255 109.255C121.343 97.1668 128 81.095 128 64C128 46.905 121.343 30.8332 109.255 18.745ZM64 120.082C33.076 120.082 7.91753 94.924 7.91753 64C7.91753 33.076 33.076 7.91753 64 7.91753C94.924 7.91753 120.082 33.076 120.082 64C120.082 94.924 94.924 120.082 64 120.082Z" fill="#B48348"/>
<path d="M84.0613 42.6191C78.968 42.6191 74.8242 46.7629 74.8242 51.8563C74.8242 56.9496 78.968 61.0934 84.0613 61.0934C89.1547 61.0934 93.2984 56.9496 93.2984 51.8563C93.2984 46.7629 89.1547 42.6191 84.0613 42.6191Z" fill="#B48348"/>
<path d="M53.1759 51.8563C53.1759 46.7629 49.0321 42.6191 43.9388 42.6191C38.8454 42.6191 34.7017 46.7629 34.7017 51.8563C34.7017 56.9496 38.8454 61.0934 43.9388 61.0934C49.0321 61.0934 53.1759 56.9496 53.1759 51.8563Z" fill="#B48348"/>
<path d="M89.0011 82.5386H38.999V90.4561H89.0011V82.5386Z" fill="#B48348"/>
</g>
<defs>
<clipPath id="clip0_320_6439">
<rect width="128" height="128" fill="white"/>
</clipPath>
</defs>
</svg>
